<?xml version="1.0" encoding="UTF-8" standalone="no"?>
<svg
   xmlns:dc="http://purl.org/dc/elements/1.1/"
   xmlns:cc="http://creativecommons.org/ns#"
   xmlns:rdf="http://www.w3.org/1999/02/22-rdf-syntax-ns#"
   xmlns:svg="http://www.w3.org/2000/svg"
   xmlns="http://www.w3.org/2000/svg"
   xmlns:sodipodi="http://sodipodi.sourceforge.net/DTD/sodipodi-0.dtd"
   xmlns:inkscape="http://www.inkscape.org/namespaces/inkscape"
   version="1.1"
   id="Capa_1"
   x="0px"
   y="0px"
   viewBox="0 0 512 512"
   style="enable-background:new 0 0 512 512;"
   xml:space="preserve"
   sodipodi:docname="001-like2.svg"
   inkscape:version="1.0.1 (3bc2e813f5, 2020-09-07)"><metadata
   id="metadata2879"><rdf:RDF><cc:Work
       rdf:about=""><dc:format>image/svg+xml</dc:format><dc:type
         rdf:resource="http://purl.org/dc/dcmitype/StillImage" /><dc:title></dc:title></cc:Work></rdf:RDF></metadata><defs
   id="defs2877" /><sodipodi:namedview
   pagecolor="#ffffff"
   bordercolor="#666666"
   borderopacity="1"
   objecttolerance="10"
   gridtolerance="10"
   guidetolerance="10"
   inkscape:pageopacity="0"
   inkscape:pageshadow="2"
   inkscape:window-width="2560"
   inkscape:window-height="1017"
   id="namedview2875"
   showgrid="false"
   inkscape:zoom="1.6162671"
   inkscape:cx="136.8984"
   inkscape:cy="256"
   inkscape:window-x="-8"
   inkscape:window-y="-8"
   inkscape:window-maximized="1"
   inkscape:current-layer="g2840" />
<g
   id="g2842">
	<g
   id="g2840">
		<path
   d="m 376,23.812904 c -27.783,0 -53.255,8.804 -75.707,26.168 -21.525,16.647 -35.856,37.85 -44.293,53.267996 -8.437,-15.418996 -22.768,-36.620996 -44.293,-53.267996 -22.452,-17.364 -47.924,-26.168 -75.707,-26.168 -77.532,0 -136,63.417 -136,147.513996 0,90.854 72.943,153.015 183.369,247.118 18.752,15.981 40.007,34.095 62.099,53.414 2.912,2.55 6.652,3.954 10.532,3.954 3.88,0 7.62,-1.404 10.532,-3.953 22.094,-19.322 43.348,-37.435 62.111,-53.425 C 439.057,324.3419 512,262.1809 512,171.3269 512,87.229904 453.532,23.812904 376,23.812904 Z"
   id="path2838"
   style="fill:#000000;stroke:#000000;stroke-opacity:1" />
	</g>
</g>
<g
   id="g2844">
</g>
<g
   id="g2846">
</g>
<g
   id="g2848">
</g>
<g
   id="g2850">
</g>
<g
   id="g2852">
</g>
<g
   id="g2854">
</g>
<g
   id="g2856">
</g>
<g
   id="g2858">
</g>
<g
   id="g2860">
</g>
<g
   id="g2862">
</g>
<g
   id="g2864">
</g>
<g
   id="g2866">
</g>
<g
   id="g2868">
</g>
<g
   id="g2870">
</g>
<g
   id="g2872">
</g>
</svg>
