<?xml version="1.0" encoding="UTF-8" standalone="no"?>
<svg
   xmlns:dc="http://purl.org/dc/elements/1.1/"
   xmlns:cc="http://creativecommons.org/ns#"
   xmlns:rdf="http://www.w3.org/1999/02/22-rdf-syntax-ns#"
   xmlns:svg="http://www.w3.org/2000/svg"
   xmlns="http://www.w3.org/2000/svg"
   xmlns:sodipodi="http://sodipodi.sourceforge.net/DTD/sodipodi-0.dtd"
   xmlns:inkscape="http://www.inkscape.org/namespaces/inkscape"
   width="210mm"
   height="297mm"
   viewBox="0 0 210 297"
   version="1.1"
   id="svg8"
   inkscape:version="1.0.1 (3bc2e813f5, 2020-09-07)"
   sodipodi:docname="indatech01.svg">
  <defs
     id="defs2" />
  <sodipodi:namedview
     id="base"
     pagecolor="#ffffff"
     bordercolor="#666666"
     borderopacity="1.0"
     inkscape:pageopacity="0.0"
     inkscape:pageshadow="2"
     inkscape:zoom="3.0672937"
     inkscape:cx="198.29106"
     inkscape:cy="135.52267"
     inkscape:document-units="mm"
     inkscape:current-layer="layer1"
     inkscape:document-rotation="0"
     showgrid="false"
     inkscape:window-width="2560"
     inkscape:window-height="1017"
     inkscape:window-x="-8"
     inkscape:window-y="-8"
     inkscape:window-maximized="1" />
  <metadata
     id="metadata5">
    <rdf:RDF>
      <cc:Work
         rdf:about="">
        <dc:format>image/svg+xml</dc:format>
        <dc:type
           rdf:resource="http://purl.org/dc/dcmitype/StillImage" />
        <dc:title></dc:title>
      </cc:Work>
    </rdf:RDF>
  </metadata>
  <g
     inkscape:label="Réteg 1"
     inkscape:groupmode="layer"
     id="layer1">
    <path
       d="M 6.3254416,5.1845757 V 13.550963 H 4.1498707 V 5.1845757 Z"
       style="font-style:normal;font-variant:normal;font-weight:normal;font-stretch:normal;font-size:10.5833px;line-height:1.25;font-family:Impact;-inkscape-font-specification:Impact;fill:#000000;fill-opacity:1;stroke:none;stroke-width:0.264583"
       id="path837" />
    <path
       d="M 12.05634,5.1845757 V 13.550963 H 10.149485 L 9.0177752,9.7475901 V 13.550963 H 7.1987706 V 5.1845757 H 9.0177752 L 10.237335,8.9517756 V 5.1845757 Z"
       style="font-style:normal;font-variant:normal;font-weight:normal;font-stretch:normal;font-size:10.5833px;line-height:1.25;font-family:Impact;-inkscape-font-specification:Impact;fill:#000000;fill-opacity:1;stroke:none;stroke-width:0.264583"
       id="path839" />
    <path
       d="m 12.929668,5.1845757 h 1.627803 q 1.576126,0 2.129062,0.1446935 0.558104,0.1446936 0.847491,0.4754217 0.289387,0.3307281 0.361734,0.7389706 0.07235,0.4030749 0.07235,1.591629 v 2.9300445 q 0,1.126543 -0.10852,1.508947 -0.103352,0.377237 -0.366901,0.594277 -0.263549,0.211873 -0.651121,0.299722 -0.387572,0.08268 -1.167884,0.08268 h -2.74401 z m 2.175571,1.4314326 v 5.5035227 q 0.470254,0 0.578774,-0.186035 0.10852,-0.191202 0.10852,-1.028358 V 7.6547013 q 0,-0.568439 -0.03617,-0.7286354 -0.03617,-0.1601965 -0.165364,-0.2325432 -0.129191,-0.077514 -0.485757,-0.077514 z"
       style="font-style:normal;font-variant:normal;font-weight:normal;font-stretch:normal;font-size:10.5833px;line-height:1.25;font-family:Impact;-inkscape-font-specification:Impact;fill:#000000;fill-opacity:1;stroke:none;stroke-width:0.264583"
       id="path841" />
    <path
       d="m 22.536286,5.1845757 1.245398,8.3663873 h -2.227247 l -0.10852,-1.503779 h -0.780312 l -0.12919,1.503779 h -2.253086 l 1.105873,-8.3663873 z m -1.15238,5.3794993 Q 21.218541,9.1429778 21.053177,7.0552565 20.722449,9.4530354 20.639767,10.564075 Z"
       style="font-style:normal;font-variant:normal;font-weight:normal;font-stretch:normal;font-size:10.5833px;line-height:1.25;font-family:Impact;-inkscape-font-specification:Impact;fill:#000000;fill-opacity:1;stroke:none;stroke-width:0.264583"
       id="path843" />
    <path
       d="m 27.951959,5.1845757 v 1.674311 h -1.291907 v 6.6920763 h -2.17557 V 6.8588867 h -1.286739 v -1.674311 z"
       style="font-style:normal;font-variant:normal;font-weight:normal;font-stretch:normal;font-size:10.5833px;line-height:1.25;font-family:Impact;-inkscape-font-specification:Impact;fill:#000000;fill-opacity:1;stroke:none;stroke-width:0.264583"
       id="path845" />
    <path
       d="m 28.448052,5.1845757 h 3.627674 v 1.674311 h -1.452103 v 1.5864614 h 1.359086 v 1.5916289 h -1.359086 v 1.839675 h 1.596797 v 1.674311 h -3.772368 z"
       style="font-style:normal;font-variant:normal;font-weight:normal;font-stretch:normal;font-size:10.5833px;line-height:1.25;font-family:Impact;-inkscape-font-specification:Impact;fill:#000000;fill-opacity:1;stroke:none;stroke-width:0.264583"
       id="path847" />
    <path
       d="M 37.925479,8.8329202 H 35.749908 V 7.3756494 q 0,-0.6356181 -0.07235,-0.7906469 -0.06718,-0.1601964 -0.30489,-0.1601964 -0.268716,0 -0.341063,0.1912022 -0.07235,0.1912022 -0.07235,0.8268203 v 3.8860554 q 0,0.60978 0.07235,0.795814 0.07235,0.186035 0.325561,0.186035 0.242878,0 0.315225,-0.186035 0.07751,-0.186034 0.07751,-0.873329 v -1.049028 h 2.175571 v 0.325561 q 0,1.297074 -0.186034,1.839675 -0.180867,0.542601 -0.811318,0.950843 -0.625283,0.408243 -1.54512,0.408243 -0.956011,0 -1.576126,-0.346231 Q 33.186765,13.034201 32.985228,12.424421 32.78369,11.809473 32.78369,10.579578 V 8.1352905 q 0,-0.9043346 0.06201,-1.3539182 0.06201,-0.4547511 0.366901,-0.8733289 0.310058,-0.4185778 0.852659,-0.6562886 0.547768,-0.2428785 1.255733,-0.2428785 0.961179,0 1.586462,0.3720692 0.625282,0.3720691 0.821652,0.9301728 0.19637,0.5529361 0.19637,1.7259873 z"
       style="font-style:normal;font-variant:normal;font-weight:normal;font-stretch:normal;font-size:10.5833px;line-height:1.25;font-family:Impact;-inkscape-font-specification:Impact;fill:#000000;fill-opacity:1;stroke:none;stroke-width:0.264583"
       id="path849" />
    <path
       d="m 43.708053,5.1845757 v 8.3663873 h -2.175571 v -3.513986 h -0.651121 v 3.513986 H 38.70579 V 5.1845757 h 2.175571 v 2.9920559 h 0.651121 V 5.1845757 Z"
       style="font-style:normal;font-variant:normal;font-weight:normal;font-stretch:normal;font-size:10.5833px;line-height:1.25;font-family:Impact;-inkscape-font-specification:Impact;fill:#000000;fill-opacity:1;stroke:none;stroke-width:0.264583"
       id="path851" />
  </g>
</svg>
